<?xml version="1.0" ?><svg xmlns="http://www.w3.org/2000/svg" xmlns:xlink="http://www.w3.org/1999/xlink" version="1.1" viewBox="0 0 512 512" style="enable-background:new 0 0 512 512;" xml:space="preserve"><g id="_x31_9_Online_Workshops"><g><path d="M290.15,84.552c0-0.625,0.048-1.25,0.096-1.827h-10.864c-0.577,3.172-1.442,6.393-2.548,9.614h15.094    C290.775,89.984,290.15,87.34,290.15,84.552z"/><path d="M102.487,299.903h263.42c5.336,0,10.239-2.163,13.748-5.672c3.509-3.509,5.672-8.412,5.672-13.748v-120.27    c-3.269-0.913-6.49-2.019-9.614-3.365v80.468c0,0,0,0,0,0.048c0,5.384-4.423,9.806-9.806,9.806h-263.42    c-5.384,0-9.758-4.374-9.806-9.758V102.146c0-5.432,4.422-9.806,9.854-9.806h89.12c-1.154-3.221-2.019-6.441-2.596-9.614h-86.525    c-10.719,0-19.468,8.701-19.468,19.42v135.171c0,0,0,0,0,0.048v43.118C83.067,291.202,91.816,299.903,102.487,299.903z"/><path d="M294.092,328.168h-17.785v-18.651h-84.218v18.651h-17.738c-2.692,0-4.807,2.115-4.807,4.807    c0,2.644,2.115,4.807,4.807,4.807h119.741c2.644,0,4.807-2.163,4.807-4.807C298.899,330.331,296.736,328.168,294.092,328.168z"/><path d="M265.25,130.795h-62.106c-25.717,0-46.627,20.91-46.627,46.579v18.939h-11.008c-2.692,0-4.807,2.163-4.807,4.807    c0,2.692,2.115,4.807,4.807,4.807h177.424c2.644,0,4.807-2.115,4.807-4.807c0-2.644-2.163-4.807-4.807-4.807h-11.056v-18.939    C311.877,151.705,290.967,130.795,265.25,130.795z M235.255,172.375c-0.577,1.058-1.538,1.058-2.067,0l-16.007-31.966h34.081    L235.255,172.375z"/><path d="M234.197,120.556c21.247,0,36.629-28.842,36.629-48.262c0-20.189-16.44-36.629-36.629-36.629s-36.581,16.44-36.581,36.629    C197.617,91.715,212.999,120.556,234.197,120.556z"/><path d="M460.556,34.897c-13.267-14.901-31.485-23.458-51.338-24.035c-19.708-0.577-38.551,6.826-52.588,20.91    c-9.614,9.614-16.199,21.535-19.18,34.706l-31.918,10.191c-3.413,1.105-5.768,4.278-5.768,7.883s2.307,6.778,5.768,7.883    l33.312,10.623c3.365,11.152,9.47,21.391,17.786,29.659c13.363,13.363,31.63,20.91,50.473,20.91c0.769,0,1.586-0.048,2.355-0.048    c19.949-0.673,38.167-9.325,51.386-24.371C484.495,102.29,484.35,61.719,460.556,34.897z M403.676,106.439H382.95    c-2.657,0-4.807-2.15-4.807-4.807s2.15-4.807,4.807-4.807h20.725c2.657,0,4.807,2.15,4.807,4.807S406.333,106.439,403.676,106.439    z M432.32,80.851l-49.37,0.005c-2.652,0-4.807-2.15-4.807-4.807c0-2.652,2.15-4.807,4.807-4.807l49.37-0.005    c2.652,0,4.807,2.15,4.807,4.807C437.127,78.696,434.977,80.851,432.32,80.851z"/><circle cx="91.335" cy="380.708" r="34.273"/><path d="M386.193,429.402h-18.218c-26.871,0-48.694,21.872-48.694,48.694c0,12.738,10.335,23.073,23.025,23.073h69.556    c12.69,0,23.025-10.335,23.025-23.073C434.887,451.273,413.063,429.402,386.193,429.402z"/><path d="M243.33,429.402h-18.218c-26.871,0-48.694,21.872-48.694,48.694c0,12.738,10.335,23.073,23.025,23.073h69.508    c12.738,0,23.073-10.335,23.073-23.073C292.025,451.273,270.153,429.402,243.33,429.402z"/><path d="M100.42,429.402H82.25c-26.871,0-48.742,21.872-48.742,48.694c0,12.738,10.335,23.073,23.073,23.073h69.508    c12.69,0,23.025-10.335,23.025-23.073C149.115,451.273,127.291,429.402,100.42,429.402z"/><path d="M342.786,380.708c0,18.891,15.382,34.273,34.322,34.273c18.891,0,34.225-15.382,34.225-34.273    c0-18.891-15.334-34.273-34.225-34.273C358.168,346.434,342.786,361.816,342.786,380.708z"/><circle cx="234.197" cy="380.708" r="34.273"/></g></g><g id="Layer_1"/></svg>